<svg width="16" height="13" viewBox="0 0 16 13" fill="none" xmlns="http://www.w3.org/2000/svg">
<path d="M14.5 0.681274H1.50001C0.672854 0.681274 0 1.33644 0 2.14185V10.9052C0 11.7106 0.672854 12.3658 1.50001 12.3658H14.5C15.3271 12.3658 16 11.7106 16 10.9052V2.14185C16 1.33644 15.3271 0.681274 14.5 0.681274ZM14.5 1.65498C14.5679 1.65498 14.6325 1.6687 14.6916 1.69267L8 7.33986L1.30833 1.69267C1.36742 1.66873 1.43204 1.65498 1.49998 1.65498H14.5ZM14.5 11.392H1.50001C1.22414 11.392 0.999996 11.1738 0.999996 10.9052V2.7214L7.67236 8.35207C7.76661 8.43145 7.8833 8.47093 8 8.47093C8.1167 8.47093 8.23339 8.43149 8.32764 8.35207L15 2.7214V10.9052C15 11.1738 14.7759 11.392 14.5 11.392Z" fill="#757575"/>
</svg>
