<svg width="28" height="28" viewBox="0 0 28 28" fill="none" xmlns="http://www.w3.org/2000/svg">
<g clip-path="url(#clip0)" filter="url(#filter0_d)">
<path d="M23.9951 20.0001V19.9993H24.0001V12.6643C24.0001 9.07593 23.2276 6.31177 19.0326 6.31177C17.0159 6.31177 15.6626 7.41843 15.1101 8.4676H15.0517V6.64677H11.0742V19.9993H15.2159V13.3876C15.2159 11.6468 15.5459 9.96343 17.7017 9.96343C19.8259 9.96343 19.8576 11.9501 19.8576 13.4993V20.0001H23.9951Z" fill="white"/>
<path d="M4.33008 6.64746H8.47675V20H4.33008V6.64746Z" fill="white"/>
<path d="M6.40167 0C5.07583 0 4 1.07583 4 2.40167C4 3.7275 5.07583 4.82583 6.40167 4.82583C7.7275 4.82583 8.80333 3.7275 8.80333 2.40167C8.8025 1.07583 7.72667 0 6.40167 0V0Z" fill="white"/>
</g>
<defs>
<filter id="filter0_d" x="0" y="0" width="28" height="28" filterUnits="userSpaceOnUse" color-interpolation-filters="sRGB">
<feFlood flood-opacity="0" result="BackgroundImageFix"/>
<feColorMatrix in="SourceAlpha" type="matrix" values="0 0 0 0 0 0 0 0 0 0 0 0 0 0 0 0 0 0 127 0"/>
<feOffset dy="4"/>
<feGaussianBlur stdDeviation="2"/>
<feColorMatrix type="matrix" values="0 0 0 0 0 0 0 0 0 0 0 0 0 0 0 0 0 0 0.25 0"/>
<feBlend mode="normal" in2="BackgroundImageFix" result="effect1_dropShadow"/>
<feBlend mode="normal" in="SourceGraphic" in2="effect1_dropShadow" result="shape"/>
</filter>
<clipPath id="clip0">
<rect width="20" height="20" fill="white" transform="translate(4)"/>
</clipPath>
</defs>
</svg>
