<svg width="10" height="17" viewBox="0 0 10 17" fill="none" xmlns="http://www.w3.org/2000/svg">
<path d="M8.5 0.528076H1.5C0.672848 0.528076 0 1.18323 0 1.98864V14.6469C0 15.4523 0.672848 16.1074 1.5 16.1074H8.5C9.32715 16.1074 10 15.4523 10 14.6469V1.98864C10 1.18323 9.32715 0.528076 8.5 0.528076ZM1.5 1.50178H8.5C8.77588 1.50178 9 1.72001 9 1.98864V12.2126H1V1.98864C1 1.72001 1.22412 1.50178 1.5 1.50178ZM8.5 15.1337H1.5C1.22412 15.1337 1 14.9155 1 14.6469V13.1863H9V14.6469C9 14.9155 8.77588 15.1337 8.5 15.1337Z" fill="#757575"/>
<path d="M2.35355 13.8157C2.54882 14.0059 2.54882 14.3143 2.35355 14.5045C2.15828 14.6947 1.84172 14.6947 1.64645 14.5045C1.45118 14.3143 1.45118 14.0059 1.64645 13.8157C1.84172 13.6255 2.15828 13.6255 2.35355 13.8157Z" fill="#757575"/>
</svg>
